<svg xmlns="http://www.w3.org/2000/svg" viewBox="0 0 100 100">
  <rect width="100" height="100" rx="22" fill="#121212"/>
  <g transform="translate(22.02 18) scale(0.6400)">
    <path d="M47.03 0.08Q47.12 0.00 48.98 0.00Q50.85 0.00 52.03 0.34Q53.22 0.68 54.07 1.10Q54.92 1.53 60.93 5.51Q66.95 9.49 67.20 9.58Q67.46 9.66 74.66 14.41Q81.86 19.15 82.12 19.24Q82.37 19.32 82.88 19.75Q83.39 20.17 83.98 21.19Q84.58 22.20 84.66 22.80Q84.75 23.39 84.83 23.47Q84.92 23.56 84.83 24.66Q84.75 25.76 84.32 26.69Q83.90 27.63 82.97 28.47Q82.03 29.32 81.61 29.49Q81.19 29.66 80.76 30.00Q80.34 30.34 79.24 30.93Q78.14 31.53 77.46 32.03Q76.78 32.54 74.58 33.81Q72.37 35.08 70.59 36.27Q68.81 37.46 67.88 37.80Q66.95 38.14 65.76 38.22Q64.58 38.31 64.49 38.22Q64.41 38.14 63.64 38.05Q62.88 37.97 62.29 37.71Q61.69 37.46 52.80 31.53Q43.90 25.59 43.64 25.51Q43.39 25.42 40.93 23.73Q38.47 22.03 38.22 21.95Q37.97 21.86 37.71 21.61Q37.46 21.36 36.95 21.10Q36.44 20.85 36.19 20.76Q35.93 20.68 34.83 20.68Q33.73 20.68 33.22 20.93Q32.71 21.19 32.29 21.61Q31.86 22.03 31.53 22.88Q31.19 23.73 31.19 56.10Q31.19 88.47 31.02 88.73Q30.85 88.98 30.51 88.98Q30.17 88.98 24.41 85.25Q18.64 81.53 18.39 81.44Q18.14 81.36 17.46 80.85Q16.78 80.34 16.10 80.00Q15.42 79.66 11.95 77.37Q8.47 75.08 5.93 73.56Q3.39 72.03 2.71 71.36Q2.03 70.68 1.69 70.17Q1.36 69.66 0.85 68.47Q0.34 67.29 0.25 66.44Q0.17 65.59 0.08 65.51Q0.00 65.42 0.00 49.66Q0.00 33.90 0.08 33.81Q0.17 33.73 0.17 33.05Q0.17 32.37 0.25 32.29Q0.34 32.20 0.34 31.86Q0.34 31.53 0.59 30.68Q0.85 29.83 1.27 28.98Q1.69 28.14 2.12 27.54Q2.54 26.95 3.73 25.85Q4.92 24.75 5.17 24.66Q5.42 24.58 6.10 24.07Q6.78 23.56 8.56 22.54Q10.34 21.53 12.80 19.92Q15.25 18.31 17.03 17.29Q18.81 16.27 19.24 15.93Q19.66 15.59 19.92 15.51Q20.17 15.42 20.59 15.08Q21.02 14.75 22.37 13.98Q23.73 13.22 24.15 12.88Q24.58 12.54 24.83 12.46Q25.08 12.37 25.51 12.03Q25.93 11.69 26.19 11.61Q26.44 11.53 26.86 11.19Q27.29 10.85 30.85 8.73Q34.41 6.61 35.08 6.10Q35.76 5.59 36.44 5.25Q37.12 4.92 39.49 3.39Q41.86 1.86 43.39 1.19Q44.92 0.51 45.93 0.34Q46.95 0.17 47.03 0.08Z M65.00 58.22Q65.08 58.14 66.36 58.22Q67.63 58.31 68.73 58.73Q69.83 59.15 70.25 59.49Q70.68 59.83 71.36 60.17Q72.03 60.51 73.39 61.44Q74.75 62.37 75.42 62.71Q76.10 63.05 76.78 63.56Q77.46 64.07 78.14 64.41Q78.81 64.75 80.17 65.68Q81.53 66.61 83.39 67.71Q85.25 68.81 85.68 69.24Q86.10 69.66 86.44 70.17Q86.78 70.68 87.12 71.69Q87.46 72.71 87.46 73.73Q87.46 74.75 87.20 75.59Q86.95 76.44 86.61 77.03Q86.27 77.63 85.68 78.22Q85.08 78.81 84.32 79.24Q83.56 79.66 82.63 80.34Q81.69 81.02 81.44 81.10Q81.19 81.19 80.00 82.03Q78.81 82.88 78.56 82.97Q78.31 83.05 75.68 84.83Q73.05 86.61 72.80 86.69Q72.54 86.78 63.56 92.71Q54.58 98.64 53.39 99.15Q52.20 99.66 51.36 99.75Q50.51 99.83 50.42 99.92Q50.34 100.00 49.58 100.00Q48.81 100.00 48.73 99.92Q48.64 99.83 48.22 99.83Q47.80 99.83 47.71 99.75Q47.63 99.66 47.03 99.58Q46.44 99.49 45.59 99.07Q44.75 98.64 43.56 97.80Q42.37 96.95 42.12 96.86Q41.86 96.78 41.61 96.53Q41.36 96.27 38.73 94.58Q36.10 92.88 35.85 92.54Q35.59 92.20 35.59 91.95Q35.59 91.69 35.51 91.61Q35.42 91.53 35.42 84.75Q35.42 77.97 35.59 77.46Q35.76 76.95 36.02 76.53Q36.27 76.10 37.80 75.08Q39.32 74.07 39.58 73.98Q39.83 73.90 47.29 68.90Q54.75 63.90 55.00 63.81Q55.25 63.73 58.47 61.53Q61.69 59.32 62.37 58.98Q63.05 58.64 63.64 58.47Q64.24 58.31 64.58 58.31Q64.92 58.31 65.00 58.22Z" fill="#ffffff"/>
  </g>
</svg>
